<mxfile host="app.diagrams.net" agent="Mozilla/5.0 (Macintosh; Intel Mac OS X 10_15_7) AppleWebKit/537.36 (KHTML, like Gecko) Chrome/129.0.0.0 Safari/537.36" version="24.8.3">
  <diagram name="Page-1" id="b5b7bab2-c9e2-2cf4-8b2a-24fd1a2a6d21">
    <mxGraphModel dx="1064" dy="517" grid="0" gridSize="10" guides="1" tooltips="1" connect="1" arrows="1" fold="1" page="1" pageScale="1" pageWidth="3300" pageHeight="4681" background="none" math="0" shadow="0">
      <root>
        <mxCell id="0" />
        <mxCell id="1" parent="0" />
        <mxCell id="5fm7GvyTaOi3RVWBT7wo-67" value="" style="html=1;whiteSpace=wrap;" parent="1" vertex="1">
          <mxGeometry x="1980" y="1003" width="499" height="654" as="geometry" />
        </mxCell>
        <mxCell id="5fm7GvyTaOi3RVWBT7wo-59" value="" style="html=1;whiteSpace=wrap;" parent="1" vertex="1">
          <mxGeometry x="1111" y="322" width="716" height="621" as="geometry" />
        </mxCell>
        <mxCell id="c2yfM4aKB7b6ANN_xg1U-5" value="«Component»&lt;br&gt;&lt;b&gt;Notificator&lt;/b&gt;" style="html=1;dropTarget=0;whiteSpace=wrap;" parent="1" vertex="1">
          <mxGeometry x="1144" y="516" width="180" height="90" as="geometry" />
        </mxCell>
        <mxCell id="c2yfM4aKB7b6ANN_xg1U-6" value="" style="shape=module;jettyWidth=8;jettyHeight=4;" parent="c2yfM4aKB7b6ANN_xg1U-5" vertex="1">
          <mxGeometry x="1" width="20" height="20" relative="1" as="geometry">
            <mxPoint x="-27" y="7" as="offset" />
          </mxGeometry>
        </mxCell>
        <mxCell id="c2yfM4aKB7b6ANN_xg1U-7" value="«Component»&lt;br&gt;&lt;b&gt;Authentication&lt;/b&gt;" style="html=1;dropTarget=0;whiteSpace=wrap;" parent="1" vertex="1">
          <mxGeometry x="1486" y="562" width="180" height="90" as="geometry" />
        </mxCell>
        <mxCell id="c2yfM4aKB7b6ANN_xg1U-8" value="" style="shape=module;jettyWidth=8;jettyHeight=4;" parent="c2yfM4aKB7b6ANN_xg1U-7" vertex="1">
          <mxGeometry x="1" width="20" height="20" relative="1" as="geometry">
            <mxPoint x="-27" y="7" as="offset" />
          </mxGeometry>
        </mxCell>
        <mxCell id="c2yfM4aKB7b6ANN_xg1U-9" value="«Component»&lt;br&gt;&lt;b&gt;Authorization&lt;/b&gt;" style="html=1;dropTarget=0;whiteSpace=wrap;" parent="1" vertex="1">
          <mxGeometry x="1175" y="784" width="180" height="90" as="geometry" />
        </mxCell>
        <mxCell id="c2yfM4aKB7b6ANN_xg1U-10" value="" style="shape=module;jettyWidth=8;jettyHeight=4;" parent="c2yfM4aKB7b6ANN_xg1U-9" vertex="1">
          <mxGeometry x="1" width="20" height="20" relative="1" as="geometry">
            <mxPoint x="-27" y="7" as="offset" />
          </mxGeometry>
        </mxCell>
        <mxCell id="c2yfM4aKB7b6ANN_xg1U-16" value="" style="ellipse;whiteSpace=wrap;html=1;align=center;aspect=fixed;fillColor=none;strokeColor=none;resizable=0;perimeter=centerPerimeter;rotatable=0;allowArrows=0;points=[];outlineConnect=1;" parent="1" vertex="1">
          <mxGeometry x="1040" y="934" width="10" height="10" as="geometry" />
        </mxCell>
        <mxCell id="c2yfM4aKB7b6ANN_xg1U-32" value="" style="ellipse;whiteSpace=wrap;html=1;align=center;aspect=fixed;fillColor=none;strokeColor=none;resizable=0;perimeter=centerPerimeter;rotatable=0;allowArrows=0;points=[];outlineConnect=1;" parent="1" vertex="1">
          <mxGeometry x="1150" y="884" width="10" height="10" as="geometry" />
        </mxCell>
        <mxCell id="c2yfM4aKB7b6ANN_xg1U-40" value="" style="ellipse;whiteSpace=wrap;html=1;align=center;aspect=fixed;fillColor=none;strokeColor=none;resizable=0;perimeter=centerPerimeter;rotatable=0;allowArrows=0;points=[];outlineConnect=1;" parent="1" vertex="1">
          <mxGeometry x="1481" y="944" width="10" height="10" as="geometry" />
        </mxCell>
        <mxCell id="5fm7GvyTaOi3RVWBT7wo-1" value="«Component»&lt;br&gt;&lt;b&gt;2FA handler&lt;/b&gt;" style="html=1;dropTarget=0;whiteSpace=wrap;" parent="1" vertex="1">
          <mxGeometry x="1477" y="373" width="180" height="90" as="geometry" />
        </mxCell>
        <mxCell id="5fm7GvyTaOi3RVWBT7wo-2" value="" style="shape=module;jettyWidth=8;jettyHeight=4;" parent="5fm7GvyTaOi3RVWBT7wo-1" vertex="1">
          <mxGeometry x="1" width="20" height="20" relative="1" as="geometry">
            <mxPoint x="-27" y="7" as="offset" />
          </mxGeometry>
        </mxCell>
        <mxCell id="5fm7GvyTaOi3RVWBT7wo-6" value="Employee login info" style="text;html=1;align=center;verticalAlign=middle;resizable=0;points=[];autosize=1;strokeColor=none;fillColor=none;" parent="1" vertex="1">
          <mxGeometry x="1570" y="488" width="123" height="26" as="geometry" />
        </mxCell>
        <mxCell id="5fm7GvyTaOi3RVWBT7wo-7" value="" style="rounded=0;orthogonalLoop=1;jettySize=auto;html=1;endArrow=halfCircle;endFill=0;endSize=6;strokeWidth=1;sketch=0;exitX=0.5;exitY=1;exitDx=0;exitDy=0;entryX=0.394;entryY=0.318;entryDx=0;entryDy=0;entryPerimeter=0;" parent="1" source="5fm7GvyTaOi3RVWBT7wo-1" target="5fm7GvyTaOi3RVWBT7wo-9" edge="1">
          <mxGeometry relative="1" as="geometry">
            <mxPoint x="1354" y="518" as="sourcePoint" />
            <mxPoint x="1364" y="513" as="targetPoint" />
          </mxGeometry>
        </mxCell>
        <mxCell id="5fm7GvyTaOi3RVWBT7wo-8" value="" style="rounded=0;orthogonalLoop=1;jettySize=auto;html=1;endArrow=oval;endFill=0;sketch=0;sourcePerimeterSpacing=0;targetPerimeterSpacing=0;endSize=10;exitX=0.5;exitY=0;exitDx=0;exitDy=0;entryX=1.335;entryY=0.435;entryDx=0;entryDy=0;entryPerimeter=0;" parent="1" source="c2yfM4aKB7b6ANN_xg1U-7" target="5fm7GvyTaOi3RVWBT7wo-9" edge="1">
          <mxGeometry relative="1" as="geometry">
            <mxPoint x="1314" y="518" as="sourcePoint" />
            <mxPoint x="1364" y="514" as="targetPoint" />
          </mxGeometry>
        </mxCell>
        <mxCell id="5fm7GvyTaOi3RVWBT7wo-9" value="" style="ellipse;whiteSpace=wrap;html=1;align=center;aspect=fixed;fillColor=none;strokeColor=none;resizable=0;perimeter=centerPerimeter;rotatable=0;allowArrows=0;points=[];outlineConnect=1;" parent="1" vertex="1">
          <mxGeometry x="1565" y="499" width="10" height="10" as="geometry" />
        </mxCell>
        <mxCell id="5fm7GvyTaOi3RVWBT7wo-10" value="" style="rounded=0;orthogonalLoop=1;jettySize=auto;html=1;endArrow=halfCircle;endFill=0;endSize=6;strokeWidth=1;sketch=0;exitX=0.986;exitY=0.404;exitDx=0;exitDy=0;exitPerimeter=0;" parent="1" source="c2yfM4aKB7b6ANN_xg1U-5" target="5fm7GvyTaOi3RVWBT7wo-12" edge="1">
          <mxGeometry relative="1" as="geometry">
            <mxPoint x="1208" y="398" as="sourcePoint" />
            <Array as="points" />
          </mxGeometry>
        </mxCell>
        <mxCell id="5fm7GvyTaOi3RVWBT7wo-11" value="" style="rounded=0;orthogonalLoop=1;jettySize=auto;html=1;endArrow=oval;endFill=0;sketch=0;sourcePerimeterSpacing=0;targetPerimeterSpacing=0;endSize=10;exitX=0;exitY=0.5;exitDx=0;exitDy=0;" parent="1" source="5fm7GvyTaOi3RVWBT7wo-1" target="5fm7GvyTaOi3RVWBT7wo-12" edge="1">
          <mxGeometry relative="1" as="geometry">
            <mxPoint x="1168" y="398" as="sourcePoint" />
          </mxGeometry>
        </mxCell>
        <mxCell id="5fm7GvyTaOi3RVWBT7wo-12" value="" style="ellipse;whiteSpace=wrap;html=1;align=center;aspect=fixed;fillColor=none;strokeColor=none;resizable=0;perimeter=centerPerimeter;rotatable=0;allowArrows=0;points=[];outlineConnect=1;" parent="1" vertex="1">
          <mxGeometry x="1349" y="465" width="10" height="10" as="geometry" />
        </mxCell>
        <mxCell id="5fm7GvyTaOi3RVWBT7wo-13" value="OTP code&lt;br&gt;email/number" style="text;html=1;align=center;verticalAlign=middle;resizable=0;points=[];autosize=1;strokeColor=none;fillColor=none;" parent="1" vertex="1">
          <mxGeometry x="1272" y="424" width="91" height="41" as="geometry" />
        </mxCell>
        <mxCell id="5fm7GvyTaOi3RVWBT7wo-16" value="" style="ellipse;whiteSpace=wrap;html=1;align=center;aspect=fixed;fillColor=none;strokeColor=none;resizable=0;perimeter=centerPerimeter;rotatable=0;allowArrows=0;points=[];outlineConnect=1;" parent="1" vertex="1">
          <mxGeometry x="1517" y="501" width="10" height="10" as="geometry" />
        </mxCell>
        <mxCell id="5fm7GvyTaOi3RVWBT7wo-18" value="" style="rounded=0;orthogonalLoop=1;jettySize=auto;html=1;endArrow=halfCircle;endFill=0;endSize=6;strokeWidth=1;sketch=0;exitX=1;exitY=0.75;exitDx=0;exitDy=0;" parent="1" source="c2yfM4aKB7b6ANN_xg1U-7" target="5fm7GvyTaOi3RVWBT7wo-20" edge="1">
          <mxGeometry relative="1" as="geometry">
            <mxPoint x="1190" y="628" as="sourcePoint" />
          </mxGeometry>
        </mxCell>
        <mxCell id="5fm7GvyTaOi3RVWBT7wo-19" value="" style="rounded=0;orthogonalLoop=1;jettySize=auto;html=1;endArrow=oval;endFill=0;sketch=0;sourcePerimeterSpacing=0;targetPerimeterSpacing=0;endSize=10;exitX=0;exitY=0;exitDx=0;exitDy=0;" parent="1" source="RZEkl2qiAG9abo1SYbvG-1" target="5fm7GvyTaOi3RVWBT7wo-20" edge="1">
          <mxGeometry relative="1" as="geometry">
            <mxPoint x="2049" y="1267" as="sourcePoint" />
          </mxGeometry>
        </mxCell>
        <mxCell id="5fm7GvyTaOi3RVWBT7wo-20" value="" style="ellipse;whiteSpace=wrap;html=1;align=center;aspect=fixed;fillColor=none;strokeColor=none;resizable=0;perimeter=centerPerimeter;rotatable=0;allowArrows=0;points=[];outlineConnect=1;" parent="1" vertex="1">
          <mxGeometry x="1866" y="689" width="10" height="10" as="geometry" />
        </mxCell>
        <mxCell id="5fm7GvyTaOi3RVWBT7wo-21" value="User details" style="text;html=1;align=center;verticalAlign=middle;resizable=0;points=[];autosize=1;strokeColor=none;fillColor=none;" parent="1" vertex="1">
          <mxGeometry x="1879" y="660" width="81" height="26" as="geometry" />
        </mxCell>
        <mxCell id="5fm7GvyTaOi3RVWBT7wo-25" value="" style="ellipse;whiteSpace=wrap;html=1;align=center;aspect=fixed;fillColor=none;strokeColor=none;resizable=0;perimeter=centerPerimeter;rotatable=0;allowArrows=0;points=[];outlineConnect=1;" parent="1" vertex="1">
          <mxGeometry x="1307" y="973" width="10" height="10" as="geometry" />
        </mxCell>
        <mxCell id="5fm7GvyTaOi3RVWBT7wo-26" value="Display info" style="text;html=1;align=center;verticalAlign=middle;resizable=0;points=[];autosize=1;strokeColor=none;fillColor=none;" parent="1" vertex="1">
          <mxGeometry x="1706" y="1189" width="80" height="26" as="geometry" />
        </mxCell>
        <mxCell id="5fm7GvyTaOi3RVWBT7wo-27" value="«Component»&lt;br&gt;&lt;b&gt;IP-blocker&lt;/b&gt;" style="html=1;dropTarget=0;whiteSpace=wrap;" parent="1" vertex="1">
          <mxGeometry x="1416" y="784" width="180" height="90" as="geometry" />
        </mxCell>
        <mxCell id="5fm7GvyTaOi3RVWBT7wo-28" value="" style="shape=module;jettyWidth=8;jettyHeight=4;" parent="5fm7GvyTaOi3RVWBT7wo-27" vertex="1">
          <mxGeometry x="1" width="20" height="20" relative="1" as="geometry">
            <mxPoint x="-27" y="7" as="offset" />
          </mxGeometry>
        </mxCell>
        <mxCell id="5fm7GvyTaOi3RVWBT7wo-29" value="" style="ellipse;whiteSpace=wrap;html=1;align=center;aspect=fixed;fillColor=none;strokeColor=none;resizable=0;perimeter=centerPerimeter;rotatable=0;allowArrows=0;points=[];outlineConnect=1;" parent="1" vertex="1">
          <mxGeometry x="952" y="1133" width="10" height="10" as="geometry" />
        </mxCell>
        <mxCell id="5fm7GvyTaOi3RVWBT7wo-30" value="" style="rounded=0;orthogonalLoop=1;jettySize=auto;html=1;endArrow=halfCircle;endFill=0;endSize=6;strokeWidth=1;sketch=0;exitX=0.5;exitY=0;exitDx=0;exitDy=0;" parent="1" source="c2yfM4aKB7b6ANN_xg1U-9" target="5fm7GvyTaOi3RVWBT7wo-32" edge="1">
          <mxGeometry relative="1" as="geometry">
            <mxPoint x="1404" y="733" as="sourcePoint" />
          </mxGeometry>
        </mxCell>
        <mxCell id="5fm7GvyTaOi3RVWBT7wo-31" value="" style="rounded=0;orthogonalLoop=1;jettySize=auto;html=1;endArrow=oval;endFill=0;sketch=0;sourcePerimeterSpacing=0;targetPerimeterSpacing=0;endSize=10;exitX=0;exitY=1;exitDx=0;exitDy=0;" parent="1" source="c2yfM4aKB7b6ANN_xg1U-7" target="5fm7GvyTaOi3RVWBT7wo-32" edge="1">
          <mxGeometry relative="1" as="geometry">
            <mxPoint x="1364" y="733" as="sourcePoint" />
          </mxGeometry>
        </mxCell>
        <mxCell id="5fm7GvyTaOi3RVWBT7wo-32" value="" style="ellipse;whiteSpace=wrap;html=1;align=center;aspect=fixed;fillColor=none;strokeColor=none;resizable=0;perimeter=centerPerimeter;rotatable=0;allowArrows=0;points=[];outlineConnect=1;" parent="1" vertex="1">
          <mxGeometry x="1352" y="689" width="10" height="10" as="geometry" />
        </mxCell>
        <mxCell id="5fm7GvyTaOi3RVWBT7wo-33" value="Login info" style="text;html=1;align=center;verticalAlign=middle;resizable=0;points=[];autosize=1;strokeColor=none;fillColor=none;" parent="1" vertex="1">
          <mxGeometry x="1349" y="699" width="70" height="26" as="geometry" />
        </mxCell>
        <mxCell id="5fm7GvyTaOi3RVWBT7wo-36" value="" style="ellipse;whiteSpace=wrap;html=1;align=center;aspect=fixed;fillColor=none;strokeColor=none;resizable=0;perimeter=centerPerimeter;rotatable=0;allowArrows=0;points=[];outlineConnect=1;" parent="1" vertex="1">
          <mxGeometry x="1507" y="874" width="10" height="10" as="geometry" />
        </mxCell>
        <mxCell id="5fm7GvyTaOi3RVWBT7wo-38" value="«Component»&lt;br&gt;&lt;b&gt;User interface&lt;/b&gt;" style="html=1;dropTarget=0;whiteSpace=wrap;" parent="1" vertex="1">
          <mxGeometry x="1278" y="1095" width="180" height="90" as="geometry" />
        </mxCell>
        <mxCell id="5fm7GvyTaOi3RVWBT7wo-39" value="" style="shape=module;jettyWidth=8;jettyHeight=4;" parent="5fm7GvyTaOi3RVWBT7wo-38" vertex="1">
          <mxGeometry x="1" width="20" height="20" relative="1" as="geometry">
            <mxPoint x="-27" y="7" as="offset" />
          </mxGeometry>
        </mxCell>
        <mxCell id="5fm7GvyTaOi3RVWBT7wo-40" value="" style="ellipse;whiteSpace=wrap;html=1;align=center;aspect=fixed;fillColor=none;strokeColor=none;resizable=0;perimeter=centerPerimeter;rotatable=0;allowArrows=0;points=[];outlineConnect=1;" parent="1" vertex="1">
          <mxGeometry x="1300" y="982" width="10" height="10" as="geometry" />
        </mxCell>
        <mxCell id="5fm7GvyTaOi3RVWBT7wo-41" value="" style="rounded=0;orthogonalLoop=1;jettySize=auto;html=1;endArrow=halfCircle;endFill=0;endSize=6;strokeWidth=1;sketch=0;exitX=0.5;exitY=0;exitDx=0;exitDy=0;" parent="1" source="5fm7GvyTaOi3RVWBT7wo-38" target="5fm7GvyTaOi3RVWBT7wo-43" edge="1">
          <mxGeometry relative="1" as="geometry">
            <mxPoint x="1410" y="913" as="sourcePoint" />
          </mxGeometry>
        </mxCell>
        <mxCell id="5fm7GvyTaOi3RVWBT7wo-42" value="" style="rounded=0;orthogonalLoop=1;jettySize=auto;html=1;endArrow=oval;endFill=0;sketch=0;sourcePerimeterSpacing=0;targetPerimeterSpacing=0;endSize=10;exitX=0.5;exitY=1;exitDx=0;exitDy=0;" parent="1" source="c2yfM4aKB7b6ANN_xg1U-9" target="5fm7GvyTaOi3RVWBT7wo-43" edge="1">
          <mxGeometry relative="1" as="geometry">
            <mxPoint x="1370" y="913" as="sourcePoint" />
          </mxGeometry>
        </mxCell>
        <mxCell id="5fm7GvyTaOi3RVWBT7wo-43" value="" style="ellipse;whiteSpace=wrap;html=1;align=center;aspect=fixed;fillColor=none;strokeColor=none;resizable=0;perimeter=centerPerimeter;rotatable=0;allowArrows=0;points=[];outlineConnect=1;" parent="1" vertex="1">
          <mxGeometry x="1276.5" y="917" width="10" height="10" as="geometry" />
        </mxCell>
        <mxCell id="5fm7GvyTaOi3RVWBT7wo-44" value="User info" style="text;html=1;align=center;verticalAlign=middle;resizable=0;points=[];autosize=1;strokeColor=none;fillColor=none;" parent="1" vertex="1">
          <mxGeometry x="1272" y="894" width="66" height="26" as="geometry" />
        </mxCell>
        <mxCell id="5fm7GvyTaOi3RVWBT7wo-52" value="" style="ellipse;whiteSpace=wrap;html=1;align=center;aspect=fixed;fillColor=none;strokeColor=none;resizable=0;perimeter=centerPerimeter;rotatable=0;allowArrows=0;points=[];outlineConnect=1;" parent="1" vertex="1">
          <mxGeometry x="1684" y="765" width="10" height="10" as="geometry" />
        </mxCell>
        <mxCell id="5fm7GvyTaOi3RVWBT7wo-56" value="" style="ellipse;whiteSpace=wrap;html=1;align=center;aspect=fixed;fillColor=none;strokeColor=none;resizable=0;perimeter=centerPerimeter;rotatable=0;allowArrows=0;points=[];outlineConnect=1;" parent="1" vertex="1">
          <mxGeometry x="1724" y="755" width="10" height="10" as="geometry" />
        </mxCell>
        <mxCell id="5fm7GvyTaOi3RVWBT7wo-60" value="&amp;lt;&amp;lt;subsystem&amp;gt;&amp;gt;&lt;br&gt;Security" style="text;html=1;align=center;verticalAlign=middle;resizable=0;points=[];autosize=1;strokeColor=none;fillColor=none;" parent="1" vertex="1">
          <mxGeometry x="1389.5" y="322" width="103" height="41" as="geometry" />
        </mxCell>
        <mxCell id="5fm7GvyTaOi3RVWBT7wo-65" value="" style="html=1;whiteSpace=wrap;" parent="1" vertex="1">
          <mxGeometry x="282" y="721" width="401" height="480" as="geometry" />
        </mxCell>
        <mxCell id="5fm7GvyTaOi3RVWBT7wo-66" value="Logger" style="text;html=1;align=center;verticalAlign=middle;resizable=0;points=[];autosize=1;strokeColor=none;fillColor=none;" parent="1" vertex="1">
          <mxGeometry x="459.5" y="729" width="55" height="26" as="geometry" />
        </mxCell>
        <mxCell id="5fm7GvyTaOi3RVWBT7wo-68" value="Data storage" style="text;html=1;align=center;verticalAlign=middle;resizable=0;points=[];autosize=1;strokeColor=none;fillColor=none;" parent="1" vertex="1">
          <mxGeometry x="2186" y="1014" width="87" height="26" as="geometry" />
        </mxCell>
        <mxCell id="5fm7GvyTaOi3RVWBT7wo-69" value="«Component»&lt;br&gt;&lt;b&gt;Logger display creator&lt;/b&gt;" style="html=1;dropTarget=0;whiteSpace=wrap;" parent="1" vertex="1">
          <mxGeometry x="397" y="840" width="180" height="90" as="geometry" />
        </mxCell>
        <mxCell id="5fm7GvyTaOi3RVWBT7wo-70" value="" style="shape=module;jettyWidth=8;jettyHeight=4;" parent="5fm7GvyTaOi3RVWBT7wo-69" vertex="1">
          <mxGeometry x="1" width="20" height="20" relative="1" as="geometry">
            <mxPoint x="-27" y="7" as="offset" />
          </mxGeometry>
        </mxCell>
        <mxCell id="5fm7GvyTaOi3RVWBT7wo-71" value="«Component»&lt;br&gt;&lt;b&gt;Purchase manager&lt;/b&gt;" style="html=1;dropTarget=0;whiteSpace=wrap;" parent="1" vertex="1">
          <mxGeometry x="1280" y="1302" width="180" height="90" as="geometry" />
        </mxCell>
        <mxCell id="5fm7GvyTaOi3RVWBT7wo-72" value="" style="shape=module;jettyWidth=8;jettyHeight=4;" parent="5fm7GvyTaOi3RVWBT7wo-71" vertex="1">
          <mxGeometry x="1" width="20" height="20" relative="1" as="geometry">
            <mxPoint x="-27" y="7" as="offset" />
          </mxGeometry>
        </mxCell>
        <mxCell id="5fm7GvyTaOi3RVWBT7wo-74" value="" style="rounded=0;orthogonalLoop=1;jettySize=auto;html=1;endArrow=halfCircle;endFill=0;endSize=6;strokeWidth=1;sketch=0;exitX=0.5;exitY=0;exitDx=0;exitDy=0;" parent="1" source="5fm7GvyTaOi3RVWBT7wo-71" target="5fm7GvyTaOi3RVWBT7wo-76" edge="1">
          <mxGeometry relative="1" as="geometry">
            <mxPoint x="1473" y="1226" as="sourcePoint" />
          </mxGeometry>
        </mxCell>
        <mxCell id="5fm7GvyTaOi3RVWBT7wo-77" value="" style="rounded=0;orthogonalLoop=1;jettySize=auto;html=1;endArrow=oval;endFill=0;sketch=0;sourcePerimeterSpacing=0;targetPerimeterSpacing=0;endSize=10;exitX=0.5;exitY=1;exitDx=0;exitDy=0;" parent="1" source="5fm7GvyTaOi3RVWBT7wo-38" target="5fm7GvyTaOi3RVWBT7wo-76" edge="1">
          <mxGeometry relative="1" as="geometry">
            <mxPoint x="1458" y="1185" as="sourcePoint" />
            <mxPoint x="1505" y="1219" as="targetPoint" />
          </mxGeometry>
        </mxCell>
        <mxCell id="5fm7GvyTaOi3RVWBT7wo-76" value="" style="ellipse;whiteSpace=wrap;html=1;align=center;aspect=fixed;fillColor=none;strokeColor=none;resizable=0;perimeter=centerPerimeter;rotatable=0;allowArrows=0;points=[];outlineConnect=1;" parent="1" vertex="1">
          <mxGeometry x="1365" y="1242" width="10" height="10" as="geometry" />
        </mxCell>
        <mxCell id="5fm7GvyTaOi3RVWBT7wo-78" value="Order information" style="text;html=1;align=center;verticalAlign=middle;resizable=0;points=[];autosize=1;strokeColor=none;fillColor=none;" parent="1" vertex="1">
          <mxGeometry x="1380" y="1237" width="111" height="26" as="geometry" />
        </mxCell>
        <mxCell id="5fm7GvyTaOi3RVWBT7wo-79" value="" style="rounded=0;orthogonalLoop=1;jettySize=auto;html=1;endArrow=halfCircle;endFill=0;endSize=6;strokeWidth=1;sketch=0;exitX=0.5;exitY=1;exitDx=0;exitDy=0;" parent="1" source="5fm7GvyTaOi3RVWBT7wo-27" target="5fm7GvyTaOi3RVWBT7wo-81" edge="1">
          <mxGeometry relative="1" as="geometry">
            <mxPoint x="1465" y="818" as="sourcePoint" />
          </mxGeometry>
        </mxCell>
        <mxCell id="5fm7GvyTaOi3RVWBT7wo-80" value="" style="rounded=0;orthogonalLoop=1;jettySize=auto;html=1;endArrow=oval;endFill=0;sketch=0;sourcePerimeterSpacing=0;targetPerimeterSpacing=0;endSize=10;exitX=0.806;exitY=0.005;exitDx=0;exitDy=0;exitPerimeter=0;" parent="1" source="5fm7GvyTaOi3RVWBT7wo-38" target="5fm7GvyTaOi3RVWBT7wo-81" edge="1">
          <mxGeometry relative="1" as="geometry">
            <mxPoint x="1425" y="818" as="sourcePoint" />
          </mxGeometry>
        </mxCell>
        <mxCell id="5fm7GvyTaOi3RVWBT7wo-81" value="" style="ellipse;whiteSpace=wrap;html=1;align=center;aspect=fixed;fillColor=none;strokeColor=none;resizable=0;perimeter=centerPerimeter;rotatable=0;allowArrows=0;points=[];outlineConnect=1;" parent="1" vertex="1">
          <mxGeometry x="1456" y="997" width="10" height="10" as="geometry" />
        </mxCell>
        <mxCell id="5fm7GvyTaOi3RVWBT7wo-82" value="Login information" style="text;html=1;align=center;verticalAlign=middle;resizable=0;points=[];autosize=1;strokeColor=none;fillColor=none;" parent="1" vertex="1">
          <mxGeometry x="1472.5" y="1003" width="110" height="26" as="geometry" />
        </mxCell>
        <mxCell id="5fm7GvyTaOi3RVWBT7wo-83" value="" style="rounded=0;orthogonalLoop=1;jettySize=auto;html=1;endArrow=halfCircle;endFill=0;endSize=6;strokeWidth=1;sketch=0;exitX=1;exitY=0.75;exitDx=0;exitDy=0;" parent="1" source="5fm7GvyTaOi3RVWBT7wo-107" target="5fm7GvyTaOi3RVWBT7wo-85" edge="1">
          <mxGeometry relative="1" as="geometry">
            <mxPoint x="1115" y="1319" as="sourcePoint" />
          </mxGeometry>
        </mxCell>
        <mxCell id="5fm7GvyTaOi3RVWBT7wo-84" value="" style="rounded=0;orthogonalLoop=1;jettySize=auto;html=1;endArrow=oval;endFill=0;sketch=0;sourcePerimeterSpacing=0;targetPerimeterSpacing=0;endSize=10;exitX=0;exitY=0.5;exitDx=0;exitDy=0;" parent="1" source="5fm7GvyTaOi3RVWBT7wo-71" target="5fm7GvyTaOi3RVWBT7wo-85" edge="1">
          <mxGeometry relative="1" as="geometry">
            <mxPoint x="1075" y="1319" as="sourcePoint" />
          </mxGeometry>
        </mxCell>
        <mxCell id="5fm7GvyTaOi3RVWBT7wo-85" value="" style="ellipse;whiteSpace=wrap;html=1;align=center;aspect=fixed;fillColor=none;strokeColor=none;resizable=0;perimeter=centerPerimeter;rotatable=0;allowArrows=0;points=[];outlineConnect=1;" parent="1" vertex="1">
          <mxGeometry x="910" y="1253" width="10" height="10" as="geometry" />
        </mxCell>
        <mxCell id="5fm7GvyTaOi3RVWBT7wo-86" value="Receipt" style="text;html=1;align=center;verticalAlign=middle;resizable=0;points=[];autosize=1;strokeColor=none;fillColor=none;" parent="1" vertex="1">
          <mxGeometry x="903" y="1211" width="59" height="26" as="geometry" />
        </mxCell>
        <mxCell id="5fm7GvyTaOi3RVWBT7wo-89" value="" style="ellipse;whiteSpace=wrap;html=1;align=center;aspect=fixed;fillColor=none;strokeColor=none;resizable=0;perimeter=centerPerimeter;rotatable=0;allowArrows=0;points=[];outlineConnect=1;" parent="1" vertex="1">
          <mxGeometry x="970" y="1480" width="10" height="10" as="geometry" />
        </mxCell>
        <mxCell id="5fm7GvyTaOi3RVWBT7wo-91" value="" style="rounded=0;orthogonalLoop=1;jettySize=auto;html=1;endArrow=halfCircle;endFill=0;endSize=6;strokeWidth=1;sketch=0;exitX=1;exitY=0.5;exitDx=0;exitDy=0;" parent="1" source="5fm7GvyTaOi3RVWBT7wo-38" target="5fm7GvyTaOi3RVWBT7wo-93" edge="1">
          <mxGeometry relative="1" as="geometry">
            <mxPoint x="1752" y="1100" as="sourcePoint" />
          </mxGeometry>
        </mxCell>
        <mxCell id="5fm7GvyTaOi3RVWBT7wo-92" value="" style="rounded=0;orthogonalLoop=1;jettySize=auto;html=1;endArrow=oval;endFill=0;sketch=0;sourcePerimeterSpacing=0;targetPerimeterSpacing=0;endSize=10;exitX=0;exitY=0.5;exitDx=0;exitDy=0;" parent="1" source="5fm7GvyTaOi3RVWBT7wo-111" target="5fm7GvyTaOi3RVWBT7wo-93" edge="1">
          <mxGeometry relative="1" as="geometry">
            <mxPoint x="1712" y="1100" as="sourcePoint" />
          </mxGeometry>
        </mxCell>
        <mxCell id="5fm7GvyTaOi3RVWBT7wo-93" value="" style="ellipse;whiteSpace=wrap;html=1;align=center;aspect=fixed;fillColor=none;strokeColor=none;resizable=0;perimeter=centerPerimeter;rotatable=0;allowArrows=0;points=[];outlineConnect=1;" parent="1" vertex="1">
          <mxGeometry x="1716" y="1219" width="10" height="10" as="geometry" />
        </mxCell>
        <mxCell id="5fm7GvyTaOi3RVWBT7wo-94" value="«Component»&lt;br&gt;&lt;b&gt;Session management&lt;/b&gt;" style="html=1;dropTarget=0;whiteSpace=wrap;" parent="1" vertex="1">
          <mxGeometry x="1628" y="784" width="180" height="90" as="geometry" />
        </mxCell>
        <mxCell id="5fm7GvyTaOi3RVWBT7wo-95" value="" style="shape=module;jettyWidth=8;jettyHeight=4;" parent="5fm7GvyTaOi3RVWBT7wo-94" vertex="1">
          <mxGeometry x="1" width="20" height="20" relative="1" as="geometry">
            <mxPoint x="-27" y="7" as="offset" />
          </mxGeometry>
        </mxCell>
        <mxCell id="5fm7GvyTaOi3RVWBT7wo-96" value="" style="endArrow=none;html=1;rounded=0;entryX=0.145;entryY=1.011;entryDx=0;entryDy=0;entryPerimeter=0;" parent="1" target="5fm7GvyTaOi3RVWBT7wo-94" edge="1">
          <mxGeometry width="50" height="50" relative="1" as="geometry">
            <mxPoint x="1473" y="969" as="sourcePoint" />
            <mxPoint x="1647" y="919" as="targetPoint" />
            <Array as="points">
              <mxPoint x="1493" y="954" />
              <mxPoint x="1620" y="922" />
            </Array>
          </mxGeometry>
        </mxCell>
        <mxCell id="5fm7GvyTaOi3RVWBT7wo-97" value="" style="rounded=0;orthogonalLoop=1;jettySize=auto;html=1;endArrow=halfCircle;endFill=0;endSize=6;strokeWidth=1;sketch=0;exitX=0.5;exitY=1;exitDx=0;exitDy=0;" parent="1" source="c2yfM4aKB7b6ANN_xg1U-7" target="5fm7GvyTaOi3RVWBT7wo-99" edge="1">
          <mxGeometry relative="1" as="geometry">
            <mxPoint x="1573" y="725" as="sourcePoint" />
          </mxGeometry>
        </mxCell>
        <mxCell id="5fm7GvyTaOi3RVWBT7wo-98" value="" style="rounded=0;orthogonalLoop=1;jettySize=auto;html=1;endArrow=oval;endFill=0;sketch=0;sourcePerimeterSpacing=0;targetPerimeterSpacing=0;endSize=10;exitX=0.25;exitY=0;exitDx=0;exitDy=0;" parent="1" source="5fm7GvyTaOi3RVWBT7wo-27" target="5fm7GvyTaOi3RVWBT7wo-99" edge="1">
          <mxGeometry relative="1" as="geometry">
            <mxPoint x="1533" y="725" as="sourcePoint" />
          </mxGeometry>
        </mxCell>
        <mxCell id="5fm7GvyTaOi3RVWBT7wo-99" value="" style="ellipse;whiteSpace=wrap;html=1;align=center;aspect=fixed;fillColor=none;strokeColor=none;resizable=0;perimeter=centerPerimeter;rotatable=0;allowArrows=0;points=[];outlineConnect=1;" parent="1" vertex="1">
          <mxGeometry x="1519" y="711" width="10" height="10" as="geometry" />
        </mxCell>
        <mxCell id="5fm7GvyTaOi3RVWBT7wo-100" value="" style="rounded=0;orthogonalLoop=1;jettySize=auto;html=1;endArrow=halfCircle;endFill=0;endSize=6;strokeWidth=1;sketch=0;exitX=0.75;exitY=1;exitDx=0;exitDy=0;" parent="1" source="c2yfM4aKB7b6ANN_xg1U-7" target="5fm7GvyTaOi3RVWBT7wo-102" edge="1">
          <mxGeometry relative="1" as="geometry">
            <mxPoint x="1715" y="721" as="sourcePoint" />
          </mxGeometry>
        </mxCell>
        <mxCell id="5fm7GvyTaOi3RVWBT7wo-101" value="" style="rounded=0;orthogonalLoop=1;jettySize=auto;html=1;endArrow=oval;endFill=0;sketch=0;sourcePerimeterSpacing=0;targetPerimeterSpacing=0;endSize=10;exitX=0.452;exitY=-0.008;exitDx=0;exitDy=0;exitPerimeter=0;" parent="1" source="5fm7GvyTaOi3RVWBT7wo-94" target="5fm7GvyTaOi3RVWBT7wo-102" edge="1">
          <mxGeometry relative="1" as="geometry">
            <mxPoint x="1675" y="721" as="sourcePoint" />
          </mxGeometry>
        </mxCell>
        <mxCell id="5fm7GvyTaOi3RVWBT7wo-102" value="" style="ellipse;whiteSpace=wrap;html=1;align=center;aspect=fixed;fillColor=none;strokeColor=none;resizable=0;perimeter=centerPerimeter;rotatable=0;allowArrows=0;points=[];outlineConnect=1;" parent="1" vertex="1">
          <mxGeometry x="1663" y="713" width="10" height="10" as="geometry" />
        </mxCell>
        <mxCell id="5fm7GvyTaOi3RVWBT7wo-103" value="Login result" style="text;html=1;align=center;verticalAlign=middle;resizable=0;points=[];autosize=1;strokeColor=none;fillColor=none;" parent="1" vertex="1">
          <mxGeometry x="1530" y="725" width="80" height="26" as="geometry" />
        </mxCell>
        <mxCell id="5fm7GvyTaOi3RVWBT7wo-104" value="Login credentials" style="text;html=1;align=center;verticalAlign=middle;resizable=0;points=[];autosize=1;strokeColor=none;fillColor=none;" parent="1" vertex="1">
          <mxGeometry x="1680" y="695" width="109" height="26" as="geometry" />
        </mxCell>
        <mxCell id="5fm7GvyTaOi3RVWBT7wo-105" value="" style="endArrow=none;html=1;rounded=0;entryX=0.997;entryY=0.878;entryDx=0;entryDy=0;entryPerimeter=0;" parent="1" target="c2yfM4aKB7b6ANN_xg1U-5" edge="1">
          <mxGeometry width="50" height="50" relative="1" as="geometry">
            <mxPoint x="1540" y="696" as="sourcePoint" />
            <mxPoint x="1321" y="569" as="targetPoint" />
            <Array as="points">
              <mxPoint x="1540" y="674" />
            </Array>
          </mxGeometry>
        </mxCell>
        <mxCell id="5fm7GvyTaOi3RVWBT7wo-107" value="«Component»&lt;br&gt;&lt;b&gt;Automated logging system&lt;/b&gt;" style="html=1;dropTarget=0;whiteSpace=wrap;" parent="1" vertex="1">
          <mxGeometry x="377" y="1062" width="180" height="90" as="geometry" />
        </mxCell>
        <mxCell id="5fm7GvyTaOi3RVWBT7wo-108" value="" style="shape=module;jettyWidth=8;jettyHeight=4;" parent="5fm7GvyTaOi3RVWBT7wo-107" vertex="1">
          <mxGeometry x="1" width="20" height="20" relative="1" as="geometry">
            <mxPoint x="-27" y="7" as="offset" />
          </mxGeometry>
        </mxCell>
        <mxCell id="5fm7GvyTaOi3RVWBT7wo-109" value="«Component»&lt;br&gt;&lt;b&gt;Backup scheduler&lt;/b&gt;" style="html=1;dropTarget=0;whiteSpace=wrap;" parent="1" vertex="1">
          <mxGeometry x="2192" y="1053" width="180" height="90" as="geometry" />
        </mxCell>
        <mxCell id="5fm7GvyTaOi3RVWBT7wo-110" value="" style="shape=module;jettyWidth=8;jettyHeight=4;" parent="5fm7GvyTaOi3RVWBT7wo-109" vertex="1">
          <mxGeometry x="1" width="20" height="20" relative="1" as="geometry">
            <mxPoint x="-27" y="7" as="offset" />
          </mxGeometry>
        </mxCell>
        <mxCell id="5fm7GvyTaOi3RVWBT7wo-111" value="«Component»&lt;br&gt;&lt;b&gt;Cache&lt;/b&gt;&lt;span style=&quot;color: rgba(0, 0, 0, 0); font-family: monospace; font-size: 0px; text-align: start; text-wrap: nowrap;&quot;&gt;%3CmxGraphModel%3E%3Croot%3E%3CmxCell%20id%3D%220%22%2F%3E%3CmxCell%20id%3D%221%22%20parent%3D%220%22%2F%3E%3CmxCell%20id%3D%222%22%20value%3D%22%C2%ABComponent%C2%BB%26lt%3Bbr%26gt%3B%26lt%3Bb%26gt%3BBackup%20scheduler%26lt%3B%2Fb%26gt%3B%22%20style%3D%22html%3D1%3BdropTarget%3D0%3BwhiteSpace%3Dwrap%3B%22%20vertex%3D%221%22%20parent%3D%221%22%3E%3CmxGeometry%20x%3D%222192%22%20y%3D%221090%22%20width%3D%22180%22%20height%3D%2290%22%20as%3D%22geometry%22%2F%3E%3C%2FmxCell%3E%3CmxCell%20id%3D%223%22%20value%3D%22%22%20style%3D%22shape%3Dmodule%3BjettyWidth%3D8%3BjettyHeight%3D4%3B%22%20vertex%3D%221%22%20parent%3D%222%22%3E%3CmxGeometry%20x%3D%221%22%20width%3D%2220%22%20height%3D%2220%22%20relative%3D%221%22%20as%3D%22geometry%22%3E%3CmxPoint%20x%3D%22-27%22%20y%3D%227%22%20as%3D%22offset%22%2F%3E%3C%2FmxGeometry%3E%3C%2FmxCell%3E%3C%2Froot%3E%3C%2FmxGraphModel%3E&lt;/span&gt;" style="html=1;dropTarget=0;whiteSpace=wrap;" parent="1" vertex="1">
          <mxGeometry x="2088" y="1367" width="180" height="90" as="geometry" />
        </mxCell>
        <mxCell id="5fm7GvyTaOi3RVWBT7wo-112" value="" style="shape=module;jettyWidth=8;jettyHeight=4;" parent="5fm7GvyTaOi3RVWBT7wo-111" vertex="1">
          <mxGeometry x="1" width="20" height="20" relative="1" as="geometry">
            <mxPoint x="-27" y="7" as="offset" />
          </mxGeometry>
        </mxCell>
        <mxCell id="5fm7GvyTaOi3RVWBT7wo-113" value="«Component»&lt;br&gt;&lt;div style=&quot;text-align: center;&quot;&gt;&lt;span style=&quot;text-align: start; background-color: initial;&quot;&gt;&lt;b&gt;Recovery&lt;/b&gt;&lt;/span&gt;&lt;span style=&quot;color: rgba(0, 0, 0, 0); font-family: monospace; font-size: 0px; text-align: start; text-wrap: nowrap; background-color: initial;&quot;&gt;%3CmxGraphModel%3E%3Croot%3E%3CmxCell%20id%3D%220%22%2F%3E%3CmxCell%20id%3D%221%22%20parent%3D%220%22%2F%3E%3CmxCell%20id%3D%222%22%20value%3D%22%C2%ABComponent%C2%BB%26lt%3Bbr%26gt%3B%26lt%3Bb%26gt%3BBackup%20scheduler%26lt%3B%2Fb%26gt%3B%22%20style%3D%22html%3D1%3BdropTarget%3D0%3BwhiteSpace%3Dwrap%3B%22%20vertex%3D%221%22%20parent%3D%221%22%3E%3CmxGeometry%20x%3D%222192%22%20y%3D%221090%22%20width%3D%22180%22%20height%3D%2290%22%20as%3D%22geometry%22%2F%3E%3C%2FmxCell%3E%3CmxCell%20id%3D%223%22%20value%3D%22%22%20style%3D%22shape%3Dmodule%3BjettyWidth%3D8%3BjettyHeight%3D4%3B%22%20vertex%3D%221%22%20parent%3D%222%22%3E%3CmxGeometry%20x%3D%221%22%20width%3D%2220%22%20height%3D%2220%22%20relative%3D%221%22%20as%3D%22geometry%22%3E%3CmxPoint%20x%3D%22-27%22%20y%3D%227%22%20as%3D%22offset%22%2F%3E%3C%2FmxGeometry%3E%3C%2FmxCell%3E%3C%2Froot%3E%3C%2FmxGraphModel%3E&lt;/span&gt;&lt;/div&gt;" style="html=1;dropTarget=0;whiteSpace=wrap;" parent="1" vertex="1">
          <mxGeometry x="2192" y="1480" width="180" height="90" as="geometry" />
        </mxCell>
        <mxCell id="5fm7GvyTaOi3RVWBT7wo-114" value="" style="shape=module;jettyWidth=8;jettyHeight=4;" parent="5fm7GvyTaOi3RVWBT7wo-113" vertex="1">
          <mxGeometry x="1" width="20" height="20" relative="1" as="geometry">
            <mxPoint x="-27" y="7" as="offset" />
          </mxGeometry>
        </mxCell>
        <mxCell id="RZEkl2qiAG9abo1SYbvG-1" value="«Component»&lt;br&gt;&lt;div style=&quot;text-align: center;&quot;&gt;&lt;span style=&quot;text-align: start; background-color: initial;&quot;&gt;&lt;b&gt;Database&lt;/b&gt;&lt;/span&gt;&lt;span style=&quot;color: rgba(0, 0, 0, 0); font-family: monospace; font-size: 0px; text-align: start; text-wrap: nowrap; background-color: initial;&quot;&gt;%3CmxGraphModel%3E%3Croot%3E%3CmxCell%20id%3D%220%22%2F%3E%3CmxCell%20id%3D%221%22%20parent%3D%220%22%2F%3E%3CmxCell%20id%3D%222%22%20value%3D%22%C2%ABComponent%C2%BB%26lt%3Bbr%26gt%3B%26lt%3Bb%26gt%3BBackup%20scheduler%26lt%3B%2Fb%26gt%3B%22%20style%3D%22html%3D1%3BdropTarget%3D0%3BwhiteSpace%3Dwrap%3B%22%20vertex%3D%221%22%20parent%3D%221%22%3E%3CmxGeometry%20x%3D%222192%22%20y%3D%221090%22%20width%3D%22180%22%20height%3D%2290%22%20as%3D%22geometry%22%2F%3E%3C%2FmxCell%3E%3CmxCell%20id%3D%223%22%20value%3D%22%22%20style%3D%22shape%3Dmodule%3BjettyWidth%3D8%3BjettyHeight%3D4%3B%22%20vertex%3D%221%22%20parent%3D%222%22%3E%3CmxGeometry%20x%3D%221%22%20width%3D%2220%22%20height%3D%2220%22%20relative%3D%221%22%20as%3D%22geometry%22%3E%3CmxPoint%20x%3D%22-27%22%20y%3D%227%22%20as%3D%22offset%22%2F%3E%3C%2FmxGeometry%3E%3C%2FmxCell%3E%3C%2Froot%3E%3C%2FmxGraphModel%3E&lt;/span&gt;&lt;/div&gt;" style="html=1;dropTarget=0;whiteSpace=wrap;" vertex="1" parent="1">
          <mxGeometry x="2196" y="1199" width="180" height="90" as="geometry" />
        </mxCell>
        <mxCell id="RZEkl2qiAG9abo1SYbvG-2" value="" style="shape=module;jettyWidth=8;jettyHeight=4;" vertex="1" parent="RZEkl2qiAG9abo1SYbvG-1">
          <mxGeometry x="1" width="20" height="20" relative="1" as="geometry">
            <mxPoint x="-27" y="7" as="offset" />
          </mxGeometry>
        </mxCell>
        <mxCell id="RZEkl2qiAG9abo1SYbvG-4" value="" style="endArrow=none;html=1;rounded=0;entryX=0;entryY=0.5;entryDx=0;entryDy=0;" edge="1" parent="1" target="RZEkl2qiAG9abo1SYbvG-1">
          <mxGeometry width="50" height="50" relative="1" as="geometry">
            <mxPoint x="1817" y="1273" as="sourcePoint" />
            <mxPoint x="1928" y="1104" as="targetPoint" />
            <Array as="points">
              <mxPoint x="1953" y="1277" />
            </Array>
          </mxGeometry>
        </mxCell>
        <mxCell id="RZEkl2qiAG9abo1SYbvG-5" value="" style="rounded=0;orthogonalLoop=1;jettySize=auto;html=1;endArrow=halfCircle;endFill=0;endSize=6;strokeWidth=1;sketch=0;exitX=0.5;exitY=0;exitDx=0;exitDy=0;" edge="1" target="RZEkl2qiAG9abo1SYbvG-7" parent="1" source="RZEkl2qiAG9abo1SYbvG-1">
          <mxGeometry relative="1" as="geometry">
            <mxPoint x="2393" y="1158" as="sourcePoint" />
          </mxGeometry>
        </mxCell>
        <mxCell id="RZEkl2qiAG9abo1SYbvG-6" value="" style="rounded=0;orthogonalLoop=1;jettySize=auto;html=1;endArrow=oval;endFill=0;sketch=0;sourcePerimeterSpacing=0;targetPerimeterSpacing=0;endSize=10;exitX=0.5;exitY=1;exitDx=0;exitDy=0;" edge="1" target="RZEkl2qiAG9abo1SYbvG-7" parent="1" source="5fm7GvyTaOi3RVWBT7wo-109">
          <mxGeometry relative="1" as="geometry">
            <mxPoint x="2353" y="1158" as="sourcePoint" />
          </mxGeometry>
        </mxCell>
        <mxCell id="RZEkl2qiAG9abo1SYbvG-7" value="" style="ellipse;whiteSpace=wrap;html=1;align=center;aspect=fixed;fillColor=none;strokeColor=none;resizable=0;perimeter=centerPerimeter;rotatable=0;allowArrows=0;points=[];outlineConnect=1;" vertex="1" parent="1">
          <mxGeometry x="2277" y="1166" width="10" height="10" as="geometry" />
        </mxCell>
        <mxCell id="RZEkl2qiAG9abo1SYbvG-8" value="Trigger" style="text;html=1;align=center;verticalAlign=middle;resizable=0;points=[];autosize=1;strokeColor=none;fillColor=none;" vertex="1" parent="1">
          <mxGeometry x="2300" y="1164" width="56" height="26" as="geometry" />
        </mxCell>
        <mxCell id="RZEkl2qiAG9abo1SYbvG-9" value="" style="rounded=0;orthogonalLoop=1;jettySize=auto;html=1;endArrow=halfCircle;endFill=0;endSize=6;strokeWidth=1;sketch=0;exitX=0;exitY=0.5;exitDx=0;exitDy=0;" edge="1" target="RZEkl2qiAG9abo1SYbvG-11" parent="1" source="5fm7GvyTaOi3RVWBT7wo-109">
          <mxGeometry relative="1" as="geometry">
            <mxPoint x="1846" y="1102" as="sourcePoint" />
          </mxGeometry>
        </mxCell>
        <mxCell id="RZEkl2qiAG9abo1SYbvG-10" value="" style="rounded=0;orthogonalLoop=1;jettySize=auto;html=1;endArrow=oval;endFill=0;sketch=0;sourcePerimeterSpacing=0;targetPerimeterSpacing=0;endSize=10;exitX=1;exitY=0.25;exitDx=0;exitDy=0;" edge="1" target="RZEkl2qiAG9abo1SYbvG-11" parent="1" source="5fm7GvyTaOi3RVWBT7wo-38">
          <mxGeometry relative="1" as="geometry">
            <mxPoint x="1806" y="1102" as="sourcePoint" />
          </mxGeometry>
        </mxCell>
        <mxCell id="RZEkl2qiAG9abo1SYbvG-11" value="" style="ellipse;whiteSpace=wrap;html=1;align=center;aspect=fixed;fillColor=none;strokeColor=none;resizable=0;perimeter=centerPerimeter;rotatable=0;allowArrows=0;points=[];outlineConnect=1;" vertex="1" parent="1">
          <mxGeometry x="1821" y="1097" width="10" height="10" as="geometry" />
        </mxCell>
        <mxCell id="RZEkl2qiAG9abo1SYbvG-12" value="Scheduling info" style="text;html=1;align=center;verticalAlign=middle;resizable=0;points=[];autosize=1;strokeColor=none;fillColor=none;" vertex="1" parent="1">
          <mxGeometry x="1773" y="1069" width="100" height="26" as="geometry" />
        </mxCell>
        <mxCell id="RZEkl2qiAG9abo1SYbvG-14" value="" style="rounded=0;orthogonalLoop=1;jettySize=auto;html=1;endArrow=halfCircle;endFill=0;endSize=6;strokeWidth=1;sketch=0;exitX=1;exitY=1;exitDx=0;exitDy=0;" edge="1" target="RZEkl2qiAG9abo1SYbvG-16" parent="1" source="5fm7GvyTaOi3RVWBT7wo-38">
          <mxGeometry relative="1" as="geometry">
            <mxPoint x="1716" y="1325" as="sourcePoint" />
          </mxGeometry>
        </mxCell>
        <mxCell id="RZEkl2qiAG9abo1SYbvG-15" value="" style="rounded=0;orthogonalLoop=1;jettySize=auto;html=1;endArrow=oval;endFill=0;sketch=0;sourcePerimeterSpacing=0;targetPerimeterSpacing=0;endSize=10;exitX=-0.004;exitY=0.604;exitDx=0;exitDy=0;exitPerimeter=0;" edge="1" target="RZEkl2qiAG9abo1SYbvG-16" parent="1" source="5fm7GvyTaOi3RVWBT7wo-113">
          <mxGeometry relative="1" as="geometry">
            <mxPoint x="1676" y="1325" as="sourcePoint" />
          </mxGeometry>
        </mxCell>
        <mxCell id="RZEkl2qiAG9abo1SYbvG-16" value="" style="ellipse;whiteSpace=wrap;html=1;align=center;aspect=fixed;fillColor=none;strokeColor=none;resizable=0;perimeter=centerPerimeter;rotatable=0;allowArrows=0;points=[];outlineConnect=1;" vertex="1" parent="1">
          <mxGeometry x="1691" y="1320" width="10" height="10" as="geometry" />
        </mxCell>
        <mxCell id="RZEkl2qiAG9abo1SYbvG-17" value="Recovery result" style="text;html=1;align=center;verticalAlign=middle;resizable=0;points=[];autosize=1;strokeColor=none;fillColor=none;" vertex="1" parent="1">
          <mxGeometry x="1676" y="1294" width="101" height="26" as="geometry" />
        </mxCell>
        <mxCell id="RZEkl2qiAG9abo1SYbvG-18" value="" style="rounded=0;orthogonalLoop=1;jettySize=auto;html=1;endArrow=halfCircle;endFill=0;endSize=6;strokeWidth=1;sketch=0;" edge="1" target="RZEkl2qiAG9abo1SYbvG-20" parent="1" source="5fm7GvyTaOi3RVWBT7wo-113">
          <mxGeometry relative="1" as="geometry">
            <mxPoint x="2409" y="1390" as="sourcePoint" />
          </mxGeometry>
        </mxCell>
        <mxCell id="RZEkl2qiAG9abo1SYbvG-19" value="" style="rounded=0;orthogonalLoop=1;jettySize=auto;html=1;endArrow=oval;endFill=0;sketch=0;sourcePerimeterSpacing=0;targetPerimeterSpacing=0;endSize=10;exitX=0.75;exitY=1;exitDx=0;exitDy=0;" edge="1" target="RZEkl2qiAG9abo1SYbvG-20" parent="1" source="RZEkl2qiAG9abo1SYbvG-1">
          <mxGeometry relative="1" as="geometry">
            <mxPoint x="2369" y="1390" as="sourcePoint" />
          </mxGeometry>
        </mxCell>
        <mxCell id="RZEkl2qiAG9abo1SYbvG-20" value="" style="ellipse;whiteSpace=wrap;html=1;align=center;aspect=fixed;fillColor=none;strokeColor=none;resizable=0;perimeter=centerPerimeter;rotatable=0;allowArrows=0;points=[];outlineConnect=1;" vertex="1" parent="1">
          <mxGeometry x="2315" y="1320" width="10" height="10" as="geometry" />
        </mxCell>
        <mxCell id="RZEkl2qiAG9abo1SYbvG-21" value="Data" style="text;html=1;align=center;verticalAlign=middle;resizable=0;points=[];autosize=1;strokeColor=none;fillColor=none;" vertex="1" parent="1">
          <mxGeometry x="2333" y="1320" width="43" height="26" as="geometry" />
        </mxCell>
        <mxCell id="RZEkl2qiAG9abo1SYbvG-22" value="" style="endArrow=none;html=1;rounded=0;exitX=1;exitY=0.5;exitDx=0;exitDy=0;" edge="1" parent="1" source="5fm7GvyTaOi3RVWBT7wo-111">
          <mxGeometry width="50" height="50" relative="1" as="geometry">
            <mxPoint x="2226" y="1382" as="sourcePoint" />
            <mxPoint x="2313" y="1361" as="targetPoint" />
          </mxGeometry>
        </mxCell>
        <mxCell id="RZEkl2qiAG9abo1SYbvG-23" value="" style="rounded=0;orthogonalLoop=1;jettySize=auto;html=1;endArrow=halfCircle;endFill=0;endSize=6;strokeWidth=1;sketch=0;exitX=0.398;exitY=1.015;exitDx=0;exitDy=0;exitPerimeter=0;" edge="1" target="RZEkl2qiAG9abo1SYbvG-25" parent="1" source="5fm7GvyTaOi3RVWBT7wo-69">
          <mxGeometry relative="1" as="geometry">
            <mxPoint x="523" y="997" as="sourcePoint" />
          </mxGeometry>
        </mxCell>
        <mxCell id="RZEkl2qiAG9abo1SYbvG-24" value="" style="rounded=0;orthogonalLoop=1;jettySize=auto;html=1;endArrow=oval;endFill=0;sketch=0;sourcePerimeterSpacing=0;targetPerimeterSpacing=0;endSize=10;exitX=0.5;exitY=0;exitDx=0;exitDy=0;" edge="1" target="RZEkl2qiAG9abo1SYbvG-25" parent="1" source="5fm7GvyTaOi3RVWBT7wo-107">
          <mxGeometry relative="1" as="geometry">
            <mxPoint x="483" y="997" as="sourcePoint" />
          </mxGeometry>
        </mxCell>
        <mxCell id="RZEkl2qiAG9abo1SYbvG-25" value="" style="ellipse;whiteSpace=wrap;html=1;align=center;aspect=fixed;fillColor=none;strokeColor=none;resizable=0;perimeter=centerPerimeter;rotatable=0;allowArrows=0;points=[];outlineConnect=1;" vertex="1" parent="1">
          <mxGeometry x="462" y="997" width="10" height="10" as="geometry" />
        </mxCell>
        <mxCell id="RZEkl2qiAG9abo1SYbvG-26" value="Event logs" style="text;html=1;align=center;verticalAlign=middle;resizable=0;points=[];autosize=1;strokeColor=none;fillColor=none;" vertex="1" parent="1">
          <mxGeometry x="483" y="992" width="74" height="26" as="geometry" />
        </mxCell>
        <mxCell id="RZEkl2qiAG9abo1SYbvG-27" value="" style="rounded=0;orthogonalLoop=1;jettySize=auto;html=1;endArrow=halfCircle;endFill=0;endSize=6;strokeWidth=1;sketch=0;exitX=0;exitY=0.5;exitDx=0;exitDy=0;" edge="1" target="RZEkl2qiAG9abo1SYbvG-29" parent="1" source="5fm7GvyTaOi3RVWBT7wo-38">
          <mxGeometry relative="1" as="geometry">
            <mxPoint x="890" y="1138" as="sourcePoint" />
          </mxGeometry>
        </mxCell>
        <mxCell id="RZEkl2qiAG9abo1SYbvG-28" value="" style="rounded=0;orthogonalLoop=1;jettySize=auto;html=1;endArrow=oval;endFill=0;sketch=0;sourcePerimeterSpacing=0;targetPerimeterSpacing=0;endSize=10;exitX=0.99;exitY=0.681;exitDx=0;exitDy=0;exitPerimeter=0;" edge="1" target="RZEkl2qiAG9abo1SYbvG-29" parent="1" source="5fm7GvyTaOi3RVWBT7wo-69">
          <mxGeometry relative="1" as="geometry">
            <mxPoint x="850" y="1138" as="sourcePoint" />
          </mxGeometry>
        </mxCell>
        <mxCell id="RZEkl2qiAG9abo1SYbvG-29" value="" style="ellipse;whiteSpace=wrap;html=1;align=center;aspect=fixed;fillColor=none;strokeColor=none;resizable=0;perimeter=centerPerimeter;rotatable=0;allowArrows=0;points=[];outlineConnect=1;" vertex="1" parent="1">
          <mxGeometry x="931" y="1000" width="10" height="10" as="geometry" />
        </mxCell>
        <mxCell id="RZEkl2qiAG9abo1SYbvG-30" value="Display log" style="text;html=1;align=center;verticalAlign=middle;resizable=0;points=[];autosize=1;strokeColor=none;fillColor=none;" vertex="1" parent="1">
          <mxGeometry x="876.5" y="1029" width="77" height="26" as="geometry" />
        </mxCell>
        <mxCell id="RZEkl2qiAG9abo1SYbvG-31" value="" style="endArrow=none;html=1;rounded=0;entryX=1;entryY=0;entryDx=0;entryDy=0;" edge="1" parent="1" target="5fm7GvyTaOi3RVWBT7wo-107">
          <mxGeometry width="50" height="50" relative="1" as="geometry">
            <mxPoint x="1432" y="635" as="sourcePoint" />
            <mxPoint x="711" y="761" as="targetPoint" />
            <Array as="points">
              <mxPoint x="1383" y="627" />
            </Array>
          </mxGeometry>
        </mxCell>
      </root>
    </mxGraphModel>
  </diagram>
</mxfile>
